Coordinates
version=1
nRows=21
nColumns=28
inDegrees=yes

Units are S.I. units (second, meters, Newtons, ...)
Angles are in degrees.

endheader
time	pelvis_tilt	pelvis_list	pelvis_rotation	pelvis_tx	pelvis_ty	pelvis_tz	hip_flexion_r	hip_adduction_r	hip_rotation_r	knee_angle_r	ankle_angle_r	subtalar_angle_r	mtp_angle_r	hip_flexion_l	hip_adduction_l	hip_rotation_l	knee_angle_l	socket_flexion	socket_adduction	socket_rotation	socket_tx	socket_ty	socket_tz	foot_flex	lumbar_extension	lumbar_bending	lumbar_rotation
      0.93750000	      5.17667691	     -5.44971764	     -3.79954292	      0.42596707	      1.03761492	      0.30824759	     -3.08601095	     10.07662786	      0.41106594	    -13.05554399	     10.17730910	     -9.61721186	      2.74645991	      3.72562628	    -11.35627768	     -7.75320905	    -60.06430243	      0.18583506	      0.00000000	      0.00000000	      0.00000000	      0.00000000	      0.00000000	     -0.71170307	    -12.21460389	      5.11679048	      6.41674468
      0.94166667	      5.20417317	     -5.41925806	     -4.05188656	      0.43026783	      1.03833165	      0.30862230	     -3.43666228	      9.97728192	      0.35148043	    -12.99662115	     10.18629577	     -9.56767529	      2.76142738	      4.29040403	    -11.31329177	     -7.79702076	    -59.80065208	      0.13241809	      0.00000000	      0.00000000	      0.00000000	      0.00000000	      0.00000000	     -0.69344139	    -12.37308322	      5.09708186	      6.46700999
      0.94583333	      5.43866485	     -4.91518747	     -4.49954479	      0.43525360	      1.03975300	      0.30949678	     -4.19630132	      9.32801483	      0.53279939	    -12.59276378	     10.15957093	     -8.77855510	      3.16333080	      4.30265534	    -10.70119203	     -8.10059333	    -58.76969208	      0.46351492	      0.00000000	      0.00000000	      0.00000000	      0.00000000	      0.00000000	     -0.68311795	    -12.58558131	      4.31795416	      7.27793345
      0.95000000	      5.41836324	     -4.82555552	     -4.67675389	      0.43992575	      1.04038751	      0.30988871	     -4.67042804	      9.18744438	      0.60802236	    -12.20014265	     10.15512263	     -8.53270870	      3.23874293	      4.87490616	    -10.59113421	     -8.06722873	    -58.35860584	      0.43654323	      0.00000000	      0.00000000	      0.00000000	      0.00000000	      0.00000000	     -0.69867806	    -12.59357110	      4.17982290	      7.38398307
      0.95416667	      5.39427883	     -4.69209096	     -4.88238250	      0.44459837	      1.04105050	      0.31029951	     -5.12337835	      8.98963964	      0.67460766	    -11.83002779	     10.08375298	     -8.27926854	      3.30428604	      5.40801761	    -10.42358856	     -8.05729700	    -57.81037662	      0.48653850	      0.00000000	      0.00000000	      0.00000000	      0.00000000	      0.00000000	     -0.70245547	    -12.58961776	      3.99427947	      7.53577991
      0.95833333	      5.59153493	     -4.37114862	     -5.26646015	      0.44917995	      1.04206152	      0.31100446	     -5.71310088	      8.53048090	      0.71546529	    -11.62411545	     10.05079012	     -7.77614649	      3.87786892	      5.55898915	    -10.03703451	     -8.28833901	    -56.95726839	      0.67595311	      0.00000000	      0.00000000	      0.00000000	      0.00000000	      0.00000000	     -0.64843814	    -12.83386329	      3.48022172	      8.04513630
      0.96250000	      5.59613821	     -4.38104169	     -5.47387934	      0.45345745	      1.04246499	      0.31128269	     -6.03722773	      8.46930528	      0.67078356	    -11.56125603	     10.04666596	     -7.73232339	      3.89139636	      6.12730897	    -10.03946822	     -8.28286212	    -56.59209735	      0.57443585	      0.00000000	      0.00000000	      0.00000000	      0.00000000	      0.00000000	     -0.65642538	    -12.96095406	      3.49539838	      8.06877442
      0.96666667	      5.48220822	     -4.18986093	     -5.60905473	      0.45851837	      1.04299083	      0.31164749	     -6.53365092	      8.22806584	      0.84426536	    -10.91540472	      9.88905103	     -7.37638628	      3.96118534	      6.66934683	     -9.79927735	     -8.21357399	    -55.78732716	      0.69908387	      0.00000000	      0.00000000	      0.00000000	      0.00000000	      0.00000000	     -0.64366484	    -12.76088983	      3.23893248	      8.24844898
      0.97083333	      5.49007630	     -4.20235712	     -5.83088766	      0.46266956	      1.04329339	      0.31196752	     -6.84060072	      8.16638664	      0.79517253	    -10.87108360	      9.89015425	     -7.34120213	      3.97692185	      7.22568895	     -9.81001573	     -8.20828158	    -55.36747344	      0.61406742	      0.00000000	      0.00000000	      0.00000000	      0.00000000	      0.00000000	     -0.65705469	    -12.90618284	      3.23145221	      8.28379797
      0.97500000	      5.39553738	     -4.11272385	     -5.96829194	      0.46739790	      1.04376586	      0.31224991	     -7.26717766	      8.02661527	      0.92709337	    -10.39813055	      9.85652184	     -7.08471522	      4.03584760	      7.74905061	     -9.68274203	     -8.14958105	    -54.48021379	      0.80643768	      0.00000000	      0.00000000	      0.00000000	      0.00000000	      0.00000000	     -0.73700702	    -12.80349090	      3.12894887	      8.46194580
      0.97916667	      5.33504228	     -3.94646324	     -6.17114834	      0.47208323	      1.04411384	      0.31264208	     -7.68538174	      7.78520753	      1.03609165	     -9.98367399	      9.75389900	     -6.84769869	      4.08998208	      8.23446123	     -9.48233868	     -8.15749911	    -53.68103453	      0.89762837	      0.00000000	      0.00000000	      0.00000000	      0.00000000	      0.00000000	     -0.65965127	    -12.74791565	      2.88935811	      8.64998268
      0.98333333	      5.30699321	     -3.85063705	     -6.38892412	      0.47666568	      1.04445655	      0.31310019	     -8.06660217	      7.61922871	      1.10924167	     -9.73301659	      9.68269590	     -6.67430230	      4.15953267	      8.65558157	     -9.35853871	     -8.14778078	    -52.82171978	      0.99161162	      0.00000000	      0.00000000	      0.00000000	      0.00000000	      0.00000000	     -0.68357787	    -12.72861843	      2.70502645	      8.83287540
      0.98750000	      5.57222323	     -3.57497242	     -6.77504023	      0.48115942	      1.04520973	      0.31382645	     -8.72919856	      7.18297253	      1.24808058	     -9.48844484	      9.51868876	     -6.37660589	      4.86559148	      8.63667062	     -9.03317977	     -8.43709406	    -51.70675694	      1.20734061	      0.00000000	      0.00000000	      0.00000000	      0.00000000	      0.00000000	     -0.62393276	    -13.05334207	      2.21340867	      9.37652710
      0.99166667	      5.50947307	     -3.62397736	     -6.90835523	      0.48551889	      1.04529458	      0.31399648	     -9.04886160	      7.17551038	      1.25893771	     -9.28073381	      9.53613523	     -6.27912829	      4.91301033	      9.17864186	     -9.07253225	     -8.35456655	    -51.01906076	      1.20427062	      0.00000000	      0.00000000	      0.00000000	      0.00000000	      0.00000000	     -0.65955238	    -13.08088485	      2.27056720	      9.42634069
      0.99583333	      5.41521831	     -3.61324534	     -7.02988289	      0.49008687	      1.04535269	      0.31427917	     -9.41072296	      7.11483545	      1.33568987	     -8.93176200	      9.50766949	     -6.11433865	      4.96495901	      9.69514601	     -9.04546852	     -8.24276355	    -50.18677895	      1.25558457	      0.00000000	      0.00000000	      0.00000000	      0.00000000	      0.00000000	     -0.64031614	    -12.99998771	      2.22972278	      9.50762980
      1.00000000	      5.33229990	     -3.57742374	     -7.16154491	      0.49461834	      1.04535385	      0.31454118	     -9.75732281	      7.02197478	      1.39660227	     -8.62593272	      9.45141206	     -5.97675406	      5.01223689	     10.19260908	     -8.99049409	     -8.16650801	    -49.33944378	      1.30621196	      0.00000000	      0.00000000	      0.00000000	      0.00000000	      0.00000000	     -0.62223199	    -12.94935012	      2.15524966	      9.59432610
      1.00416667	      5.24936383	     -3.41009791	     -7.32373577	      0.49923497	      1.04538826	      0.31489129	    -10.12335623	      6.78585435	      1.48755428	     -8.24665245	      9.30475778	     -5.85654701	      5.10464468	     10.62429895	     -8.79204998	     -8.15240953	    -48.31155192	      1.46928337	      0.00000000	      0.00000000	      0.00000000	      0.00000000	      0.00000000	     -0.56395620	    -12.86744466	      1.91320209	      9.72733072
      1.00833333	      5.20129668	     -3.49410192	     -7.44849377	      0.50353112	      1.04530258	      0.31506587	    -10.43729270	      6.80745752	      1.49868266	     -8.09113665	      9.34345638	     -5.79065554	      5.15601017	     11.09637501	     -8.87292462	     -8.07655965	    -47.50570574	      1.46944893	      0.00000000	      0.00000000	      0.00000000	      0.00000000	      0.00000000	     -0.62809989	    -12.91403042	      1.99555194	      9.79592427
      1.01250000	      5.11228836	     -3.36362359	     -7.57198953	      0.50819164	      1.04523229	      0.31539265	    -10.83481488	      6.61963957	      1.62895600	     -7.65523450	      9.22044831	     -5.67424974	      5.25656059	     11.50982459	     -8.71161033	     -8.01336092	    -46.41857964	      1.64231003	      0.00000000	      0.00000000	      0.00000000	      0.00000000	      0.00000000	     -0.54284922	    -12.82255647	      1.79381992	      9.92194793
      1.01666667	      5.06823486	     -3.34050312	     -7.69762300	      0.51263868	      1.04512890	      0.31565732	    -11.21328497	      6.53597644	      1.70992764	     -7.36402730	      9.15348482	     -5.65418858	      5.38689907	     11.89526667	     -8.66987390	     -7.95779078	    -45.39997552	      1.75585241	      0.00000000	      0.00000000	      0.00000000	      0.00000000	      0.00000000	     -0.54827133	    -12.82734987	      1.72160015	     10.01464611
      1.02083333	      4.99986938	     -3.46496825	     -7.80317460	      0.51693943	      1.04487331	      0.31582695	    -11.53054688	      6.61095133	      1.72811983	     -7.17361715	      9.20824055	     -5.58517014	      5.43863678	     12.36077469	     -8.79465057	     -7.83663612	    -44.55858540	      1.74875900	      0.00000000	      0.00000000	      0.00000000	      0.00000000	      0.00000000	     -0.59739686	    -12.86356720	      1.84500790	     10.07183187
